<svg xmlns="http://www.w3.org/2000/svg" width="32" height="32" fill="none" viewBox="0 0 32 32"><path fill="url(#a)" d="M17 19.64h-2v10.13h2z"/><path fill="url(#b)" d="M17 19.64h-2v10.13h2z"/><path fill="url(#c)" d="M17 19.64h-2v10.13h2z"/><path fill="url(#d)" d="M17 19.64h-2v10.13h2z"/><path fill="url(#e)" d="M17 19.64h-2v10.13h2z"/><path fill="url(#f)" d="M16.78 29.07c0-2.4 1.95-4.35 4.26-4.37l2.88-.01c.14 0 .26.12.25.27a5.07 5.07 0 0 1-5.04 4.8h-2.07a.3.3 0 0 1-.28-.27z"/><path fill="url(#g)" d="M16.78 29.07c0-2.4 1.95-4.35 4.26-4.37l2.88-.01c.14 0 .26.12.25.27a5.07 5.07 0 0 1-5.04 4.8h-2.07a.3.3 0 0 1-.28-.27z"/><path fill="url(#h)" d="M16.78 29.07c0-2.4 1.95-4.35 4.26-4.37l2.88-.01c.14 0 .26.12.25.27a5.07 5.07 0 0 1-5.04 4.8h-2.07a.3.3 0 0 1-.28-.27z"/><g filter="url(#i)"><path fill="url(#j)" d="M17.74 28.5a3.34 3.34 0 0 1 3.34-3.27h2.26q.18.02.2.2A3.9 3.9 0 0 1 19.58 29h-1.62a.2.2 0 0 1-.22-.2z"/></g><path fill="url(#k)" d="M7.91 25.39c0 2.4 1.95 4.35 4.26 4.37h2.88c.14 0 .26-.11.25-.26a5.07 5.07 0 0 0-5.04-4.81H8.19a.3.3 0 0 0-.28.28z"/><path fill="url(#l)" d="M7.91 25.39c0 2.4 1.95 4.35 4.26 4.37h2.88c.14 0 .26-.11.25-.26a5.07 5.07 0 0 0-5.04-4.81H8.19a.3.3 0 0 0-.28.28z"/><path fill="url(#m)" d="M7.91 25.39c0 2.4 1.95 4.35 4.26 4.37h2.88c.14 0 .26-.11.25-.26a5.07 5.07 0 0 0-5.04-4.81H8.19a.3.3 0 0 0-.28.28z"/><g filter="url(#n)"><path fill="url(#o)" d="M8.75 25.8c0 1.86 1.5 3.37 3.3 3.38l2.22.01c.1 0 .2-.1.2-.2a3.93 3.93 0 0 0-3.9-3.73h-1.6c-.13 0-.22.1-.22.22z"/></g><g filter="url(#p)"><path stroke="url(#q)" stroke-linecap="round" stroke-width=".5" d="M11.24 25.43a4.2 4.2 0 0 1 3.22 3.55"/></g><path fill="url(#r)" fill-rule="evenodd" d="M23.46 16.38c-.14-.16-.05-.43.16-.48a4.5 4.5 0 1 0-2.74-8.56c-.2.1-.45-.1-.43-.31q.03-.26.03-.52a4.5 4.5 0 1 0-8.98.5c.02.22-.22.4-.42.32a4.5 4.5 0 0 0-6.22 4.17 4.5 4.5 0 0 0 3.46 4.38c.2.05.3.33.16.49a4.5 4.5 0 1 0 7.24 5.35.3.3 0 0 1 .49 0 4.5 4.5 0 1 0 7.25-5.34" clip-rule="evenodd"/><path fill="url(#s)" fill-rule="evenodd" d="M23.46 16.38c-.14-.16-.05-.43.16-.48a4.5 4.5 0 1 0-2.74-8.56c-.2.1-.45-.1-.43-.31q.03-.26.03-.52a4.5 4.5 0 1 0-8.98.5c.02.22-.22.4-.42.32a4.5 4.5 0 0 0-6.22 4.17 4.5 4.5 0 0 0 3.46 4.38c.2.05.3.33.16.49a4.5 4.5 0 1 0 7.24 5.35.3.3 0 0 1 .49 0 4.5 4.5 0 1 0 7.25-5.34" clip-rule="evenodd"/><path fill="url(#t)" fill-rule="evenodd" d="M23.46 16.38c-.14-.16-.05-.43.16-.48a4.5 4.5 0 1 0-2.74-8.56c-.2.1-.45-.1-.43-.31q.03-.26.03-.52a4.5 4.5 0 1 0-8.98.5c.02.22-.22.4-.42.32a4.5 4.5 0 0 0-6.22 4.17 4.5 4.5 0 0 0 3.46 4.38c.2.05.3.33.16.49a4.5 4.5 0 1 0 7.24 5.35.3.3 0 0 1 .49 0 4.5 4.5 0 1 0 7.25-5.34" clip-rule="evenodd"/><g filter="url(#u)"><path fill="url(#v)" fill-rule="evenodd" d="M22.81 16.1c-.13-.16-.04-.44.17-.49a4.1 4.1 0 1 0-2.49-7.79c-.2.09-.45-.1-.43-.32l.02-.42a4.1 4.1 0 1 0-8.18.4c.02.23-.22.41-.43.33a4.1 4.1 0 0 0-5.6 3.81 4.1 4.1 0 0 0 3.1 3.98c.2.05.3.33.16.49a4.1 4.1 0 1 0 6.59 4.87.3.3 0 0 1 .5 0 4.1 4.1 0 1 0 6.6-4.86" clip-rule="evenodd"/></g><g filter="url(#w)"><path fill="#d2b9da" d="M15.65 17.53a3.78 3.78 0 1 0 0-7.56 3.78 3.78 0 0 0 0 7.56"/></g><g filter="url(#x)"><path fill="url(#y)" d="M15.9 17.16a3.78 3.78 0 1 0 0-7.56 3.78 3.78 0 0 0 0 7.56"/><path fill="url(#z)" d="M15.9 17.16a3.78 3.78 0 1 0 0-7.56 3.78 3.78 0 0 0 0 7.56"/></g><g filter="url(#A)"><path stroke="url(#B)" stroke-linecap="round" stroke-width=".4" d="M15.87 2.7c.48-.1 1.73 0 2.88 1.1s1.14 2.83 1 3.56"/></g><g filter="url(#C)"><path stroke="url(#D)" stroke-linecap="round" stroke-width=".4" d="M21.75 7.55c.9-.09 2.97.1 4 1.53 1.28 1.78.9 3.56 0 4.65"/></g><g filter="url(#E)"><path stroke="url(#F)" stroke-linecap="round" stroke-width=".4" d="M22.87 16.42c.85.88 1.75 4.13-.78 5.9"/></g><g filter="url(#G)"><path stroke="url(#H)" stroke-linecap="round" stroke-width=".4" d="M13.97 22.3c.43-.17 1.54-.77 1.84-1.85"/></g><g filter="url(#I)"><path stroke="url(#J)" stroke-linecap="round" stroke-width=".4" d="M9.84 7.77c.54 0 1.91.23 3.06 1.18"/></g><defs><radialGradient id="e" cx="0" cy="0" r="1" gradientTransform="matrix(0 3.625 -.46875 0 16.2 26.92)" gradientUnits="userSpaceOnUse"><stop stop-color="#83b15d"/><stop offset="1" stop-color="#83b15d" stop-opacity="0"/></radialGradient><radialGradient id="h" cx="0" cy="0" r="1" gradientTransform="rotate(133.9 6.7 17.56)scale(1.14926 .24366)" gradientUnits="userSpaceOnUse"><stop stop-color="#9dd271"/><stop offset="1" stop-color="#9dd271" stop-opacity="0"/></radialGradient><radialGradient id="m" cx="0" cy="0" r="1" gradientTransform="rotate(158.54 3.95 13.74)scale(4.86879 6.63165)" gradientUnits="userSpaceOnUse"><stop offset=".84" stop-color="#92b196" stop-opacity="0"/><stop offset="1" stop-color="#92b196"/></radialGradient><radialGradient id="r" cx="0" cy="0" r="1" gradientTransform="rotate(61.68 .16 10.59)scale(20.0223 28.0788)" gradientUnits="userSpaceOnUse"><stop stop-color="#bbb5c2"/><stop offset=".97" stop-color="#d7c0ef"/></radialGradient><radialGradient id="s" cx="0" cy="0" r="1" gradientTransform="rotate(116.02 8.18 9.98)scale(2.921 .56551)" gradientUnits="userSpaceOnUse"><stop stop-color="#e8def1"/><stop offset="1" stop-color="#e8def1" stop-opacity="0"/></radialGradient><radialGradient id="t" cx="0" cy="0" r="1" gradientTransform="rotate(211.79 14.32 4.8)scale(2.61026 .68203)" gradientUnits="userSpaceOnUse"><stop stop-color="#e8def1"/><stop offset="1" stop-color="#e8def1" stop-opacity="0"/></radialGradient><radialGradient id="v" cx="0" cy="0" r="1" gradientTransform="matrix(0 -15.6113 21.8929 0 16 16.16)" gradientUnits="userSpaceOnUse"><stop stop-color="#e7d4f9"/><stop offset="1" stop-color="#d0c3dc"/></radialGradient><radialGradient id="y" cx="0" cy="0" r="1" gradientTransform="rotate(137.16 6.44 9.73)scale(4.68792 3.72969)" gradientUnits="userSpaceOnUse"><stop stop-color="#ffba5f"/><stop offset=".81" stop-color="#fc8f39"/></radialGradient><radialGradient id="z" cx="0" cy="0" r="1" gradientTransform="rotate(-55.44 22.88 -4.86)scale(4.07678 7.01291)" gradientUnits="userSpaceOnUse"><stop stop-color="#ec6f51"/><stop offset="1" stop-color="#ec6f51" stop-opacity="0"/></radialGradient><radialGradient id="B" cx="0" cy="0" r="1" gradientTransform="rotate(135 8.91 5.79)scale(3.0494 3.53553)" gradientUnits="userSpaceOnUse"><stop stop-color="#e9e2f0"/><stop offset="1" stop-color="#e9e2f0" stop-opacity="0"/></radialGradient><radialGradient id="D" cx="0" cy="0" r="1" gradientTransform="rotate(139.18 11.1 9.37)scale(2.72521 5.92852)" gradientUnits="userSpaceOnUse"><stop stop-color="#e9e2f0"/><stop offset="1" stop-color="#e9e2f0" stop-opacity="0"/></radialGradient><radialGradient id="F" cx="0" cy="0" r="1" gradientTransform="rotate(101.42 4.86 18.28)scale(4.55893 1.85266)" gradientUnits="userSpaceOnUse"><stop stop-color="#e9e2f0"/><stop offset="1" stop-color="#e9e2f0" stop-opacity="0"/></radialGradient><radialGradient id="H" cx="0" cy="0" r="1" gradientTransform="rotate(149.2 4.85 12.53)scale(2.11322 2.4415)" gradientUnits="userSpaceOnUse"><stop stop-color="#e9e2f0"/><stop offset="1" stop-color="#e9e2f0" stop-opacity="0"/></radialGradient><radialGradient id="J" cx="0" cy="0" r="1" gradientTransform="rotate(26.8 -10.93 24.99)scale(3.46593 2.37024)" gradientUnits="userSpaceOnUse"><stop stop-color="#e9e2f0"/><stop offset="1" stop-color="#e9e2f0" stop-opacity="0"/></radialGradient><linearGradient id="a" x1="16" x2="16" y1="29.77" y2="20.29" gradientUnits="userSpaceOnUse"><stop stop-color="#5da112"/><stop offset="1" stop-color="#74a93f"/></linearGradient><linearGradient id="b" x1="14.88" x2="15.5" y1="27.9" y2="27.86" gradientUnits="userSpaceOnUse"><stop stop-color="#51923c"/><stop offset="1" stop-color="#51923c" stop-opacity="0"/></linearGradient><linearGradient id="c" x1="17" x2="16.5" y1="27.95" y2="27.95" gradientUnits="userSpaceOnUse"><stop stop-color="#51923c"/><stop offset="1" stop-color="#51923c" stop-opacity="0"/></linearGradient><linearGradient id="d" x1="14.91" x2="15.35" y1="23.54" y2="23.56" gradientUnits="userSpaceOnUse"><stop stop-color="#8fb87f"/><stop offset="1" stop-color="#8fb87f" stop-opacity="0"/></linearGradient><linearGradient id="f" x1="17.83" x2="25.01" y1="29.77" y2="24.99" gradientUnits="userSpaceOnUse"><stop stop-color="#528c39"/><stop offset="1" stop-color="#81bd52"/></linearGradient><linearGradient id="g" x1="19.27" x2="19.27" y1="30.11" y2="28.7" gradientUnits="userSpaceOnUse"><stop stop-color="#6a806e"/><stop offset="1" stop-color="#6a806e" stop-opacity="0"/></linearGradient><linearGradient id="j" x1="22.74" x2="18.83" y1="25.23" y2="28.46" gradientUnits="userSpaceOnUse"><stop stop-color="#87be58"/><stop offset="1" stop-color="#7ba561"/></linearGradient><linearGradient id="k" x1="12.45" x2="8.23" y1="24.69" y2="30.4" gradientUnits="userSpaceOnUse"><stop offset=".01" stop-color="#629b53"/><stop offset="1" stop-color="#008461"/><stop offset="1" stop-color="#4d9055"/></linearGradient><linearGradient id="l" x1="13.82" x2="13.82" y1="30.18" y2="28.21" gradientUnits="userSpaceOnUse"><stop stop-color="#6f7e82"/><stop offset="1" stop-color="#6f7e82" stop-opacity="0"/></linearGradient><linearGradient id="o" x1="14.46" x2="9.2" y1="28.71" y2="25.35" gradientUnits="userSpaceOnUse"><stop stop-color="#6fa06a"/><stop offset="1" stop-color="#619a6a"/></linearGradient><linearGradient id="q" x1="14.46" x2="9.67" y1="27.08" y2="24.33" gradientUnits="userSpaceOnUse"><stop stop-color="#86ad7a"/><stop offset="1" stop-color="#86ad7a" stop-opacity="0"/></linearGradient><filter id="i" width="7" height="4.99" x="17.14" y="24.63" color-interpolation-filters="sRGB" filterUnits="userSpaceOnUse"><feFlood flood-opacity="0" result="BackgroundImageFix"/><feBlend in="SourceGraphic" in2="BackgroundImageFix" result="shape"/><feGaussianBlur result="effect1_foregroundBlur_28327_7495" stdDeviation=".3"/></filter><filter id="n" width="7.22" height="5.43" x="8" y="24.51" color-interpolation-filters="sRGB" filterUnits="userSpaceOnUse"><feFlood flood-opacity="0" result="BackgroundImageFix"/><feBlend in="SourceGraphic" in2="BackgroundImageFix" result="shape"/><feGaussianBlur result="effect1_foregroundBlur_28327_7495" stdDeviation=".38"/></filter><filter id="p" width="4.73" height="5.05" x="10.49" y="24.68" color-interpolation-filters="sRGB" filterUnits="userSpaceOnUse"><feFlood flood-opacity="0" result="BackgroundImageFix"/><feBlend in="SourceGraphic" in2="BackgroundImageFix" result="shape"/><feGaussianBlur result="effect1_foregroundBlur_28327_7495" stdDeviation=".25"/></filter><filter id="u" width="22.27" height="21.79" x="4.87" y="1.98" color-interpolation-filters="sRGB" filterUnits="userSpaceOnUse"><feFlood flood-opacity="0" result="BackgroundImageFix"/><feBlend in="SourceGraphic" in2="BackgroundImageFix" result="shape"/><feGaussianBlur result="effect1_foregroundBlur_28327_7495" stdDeviation=".5"/></filter><filter id="w" width="9.56" height="9.56" x="10.87" y="8.97" color-interpolation-filters="sRGB" filterUnits="userSpaceOnUse"><feFlood flood-opacity="0" result="BackgroundImageFix"/><feBlend in="SourceGraphic" in2="BackgroundImageFix" result="shape"/><feGaussianBlur result="effect1_foregroundBlur_28327_7495" stdDeviation=".5"/></filter><filter id="x" width="7.56" height="7.56" x="12.12" y="9.6" color-interpolation-filters="sRGB" filterUnits="userSpaceOnUse"><feFlood flood-opacity="0" result="BackgroundImageFix"/><feBlend in="SourceGraphic" in2="BackgroundImageFix" result="shape"/><feColorMatrix in="SourceAlpha" result="hardAlpha" values="0 0 0 0 0 0 0 0 0 0 0 0 0 0 0 0 0 0 127 0"/><feOffset/><feGaussianBlur stdDeviation=".25"/><feComposite in2="hardAlpha" k2="-1" k3="1" operator="arithmetic"/><feColorMatrix values="0 0 0 0 0.841667 0 0 0 0 0.504112 0 0 0 0 0.199896 0 0 0 1 0"/><feBlend in2="shape" result="effect1_innerShadow_28327_7495"/></filter><filter id="A" width="5.54" height="6.28" x="15.07" y="1.88" color-interpolation-filters="sRGB" filterUnits="userSpaceOnUse"><feFlood flood-opacity="0" result="BackgroundImageFix"/><feBlend in="SourceGraphic" in2="BackgroundImageFix" result="shape"/><feGaussianBlur result="effect1_foregroundBlur_28327_7495" stdDeviation=".3"/></filter><filter id="C" width="6.43" height="7.8" x="20.95" y="6.73" color-interpolation-filters="sRGB" filterUnits="userSpaceOnUse"><feFlood flood-opacity="0" result="BackgroundImageFix"/><feBlend in="SourceGraphic" in2="BackgroundImageFix" result="shape"/><feGaussianBlur result="effect1_foregroundBlur_28327_7495" stdDeviation=".3"/></filter><filter id="E" width="3.26" height="7.51" x="21.29" y="15.62" color-interpolation-filters="sRGB" filterUnits="userSpaceOnUse"><feFlood flood-opacity="0" result="BackgroundImageFix"/><feBlend in="SourceGraphic" in2="BackgroundImageFix" result="shape"/><feGaussianBlur result="effect1_foregroundBlur_28327_7495" stdDeviation=".3"/></filter><filter id="G" width="3.44" height="3.44" x="13.17" y="19.65" color-interpolation-filters="sRGB" filterUnits="userSpaceOnUse"><feFlood flood-opacity="0" result="BackgroundImageFix"/><feBlend in="SourceGraphic" in2="BackgroundImageFix" result="shape"/><feGaussianBlur result="effect1_foregroundBlur_28327_7495" stdDeviation=".3"/></filter><filter id="I" width="4.66" height="2.79" x="9.04" y="6.97" color-interpolation-filters="sRGB" filterUnits="userSpaceOnUse"><feFlood flood-opacity="0" result="BackgroundImageFix"/><feBlend in="SourceGraphic" in2="BackgroundImageFix" result="shape"/><feGaussianBlur result="effect1_foregroundBlur_28327_7495" stdDeviation=".3"/></filter></defs></svg>